Coordinates
version=1
nRows=60
nColumns=12
inDegrees=yes

Units are S.I. units (second, meters, Newtons, ...)
Angles are in degrees

endheader
time	SC_y	SC_z	SC_x	AC_y	AC_z	AC_x	GH_y	GH_z	GH_yy	EL_x	PS_y
       0.0              -49.16          1.117          71.45          62.69           -5.4         -1.626         -54.68          83.24          47.18          65.11          117.4
   0.03426              -49.16          1.122          71.44          62.69           -5.4         -1.623         -54.68          83.23          47.16           65.1          117.4
   0.06851              -49.16          1.127          71.43          62.68         -5.399         -1.619         -54.68          83.23          47.14           65.1          117.4
    0.1028              -49.16          1.132          71.42          62.68         -5.398         -1.616         -54.68          83.22          47.12           65.1          117.4
     0.137              -49.16          1.138          71.41          62.68         -5.397         -1.612         -54.68          83.22           47.1          65.09          117.4
    0.1713              -49.16          1.144           71.4          62.68         -5.395         -1.609         -54.67          83.21          47.07          65.09          117.4
    0.2055              -49.16          1.151          71.39          62.68         -5.394         -1.604         -54.67          83.21          47.05          65.08          117.4
    0.2398              -49.16          1.158          71.38          62.68         -5.393           -1.6         -54.67           83.2          47.02          65.07          117.3
     0.274              -49.16          1.165          71.37          62.68         -5.391         -1.595         -54.67          83.19          46.99          65.07          117.3
    0.3083              -49.16          1.173          71.36          62.68          -5.39          -1.59         -54.67          83.19          46.96          65.06          117.3
    0.3426              -49.16          1.182          71.34          62.68         -5.388         -1.585         -54.66          83.18          46.93          65.05          117.3
    0.3768              -49.16          1.192          71.33          62.68         -5.387         -1.579         -54.66          83.17          46.89          65.05          117.3
    0.4111              -49.16          1.202          71.31          62.68         -5.385         -1.573         -54.66          83.16          46.85          65.04          117.2
    0.4453              -49.16          1.213           71.3          62.68         -5.383         -1.566         -54.65          83.15          46.81          65.03          117.2
    0.4796              -49.16          1.224          71.28          62.68         -5.381         -1.558         -54.65          83.14          46.76          65.02          117.2
    0.5138              -49.16          1.237          71.26          62.68         -5.378          -1.55         -54.65          83.13          46.71          65.01          117.1
    0.5481              -49.16          1.251          71.24          62.68         -5.376         -1.542         -54.64          83.11          46.66           65.0          117.1
    0.5823              -49.16          1.266          71.21          62.68         -5.373         -1.532         -54.64           83.1           46.6          64.99          117.1
    0.6166              -49.16          1.283          71.19          62.67          -5.37         -1.522         -54.63          83.08          46.54          64.97          117.0
    0.6509              -49.15          1.301          71.16          62.67         -5.366         -1.511         -54.63          83.07          46.47          64.96          117.0
    0.6851              -49.15          1.321          71.13          62.67         -5.363         -1.498         -54.62          83.05          46.39          64.94          116.9
    0.7194              -49.15          1.343          71.09          62.67         -5.359         -1.485         -54.62          83.03          46.31          64.93          116.9
    0.7536              -49.15          1.367          71.05          62.67         -5.354          -1.47         -54.61          83.01          46.21          64.91          116.8
    0.7879              -49.15          1.393          71.01          62.67         -5.349         -1.453          -54.6          82.98          46.11          64.88          116.8
    0.8221              -49.15          1.423          70.97          62.67         -5.344         -1.434         -54.59          82.95           46.0          64.86          116.7
    0.8564              -49.15          1.456          70.91          62.66         -5.338         -1.413         -54.58          82.92          45.87          64.83          116.6
    0.8906              -49.15          1.494          70.85          62.66         -5.331          -1.39         -54.57          82.89          45.72           64.8          116.5
    0.9249              -49.15          1.535          70.79          62.66         -5.323         -1.364         -54.56          82.85          45.56          64.77          116.4
    0.9591              -49.15          1.583          70.71          62.66         -5.314         -1.335         -54.55          82.81          45.38          64.73          116.3
    0.9934              -49.15          1.636          70.63          62.65         -5.304         -1.301         -54.53          82.76          45.17          64.69          116.2
     1.028              -49.15          1.698          70.53          62.65         -5.293         -1.263         -54.51           82.7          44.94          64.64          116.0
     1.062              -49.15          1.768          70.42          62.64          -5.28         -1.219         -54.49          82.64          44.67          64.58          115.8
     1.096              -49.15          1.849           70.3          62.64         -5.265         -1.168         -54.47          82.56          44.35          64.52          115.6
      1.13              -49.15          1.944          70.15          62.63         -5.247         -1.109         -54.44          82.47          43.99          64.44          115.4
     1.165              -49.15          2.054          69.97          62.63         -5.227          -1.04         -54.41          82.37          43.56          64.35          115.1
     1.199              -49.15          2.184          69.77          62.62         -5.203        -0.9589         -54.37          82.25          43.06          64.25          114.8
     1.233              -49.14          2.339          69.53          62.61         -5.174        -0.8623         -54.33          82.11          42.47          64.12          114.4
     1.267              -49.14          2.524          69.24           62.6          -5.14        -0.7465         -54.28          81.94          41.75          63.97          113.9
     1.302              -49.14          2.748          68.88          62.58         -5.098        -0.6064         -54.21          81.73          40.89          63.79          113.4
     1.336              -49.14          3.022          68.45          62.56         -5.047        -0.4353         -54.13          81.48          39.83          63.57          112.7
      1.37              -49.13           3.36          67.92          62.54         -4.985        -0.2241         -54.04          81.16          38.53           63.3          111.9
     1.404              -49.13          3.782          67.26          62.52         -4.907        0.03929         -53.91          80.78           36.9          62.96          110.8
     1.439              -49.12          4.313          66.43          62.48         -4.808         0.3711         -53.76          80.28          34.85          62.53          109.5
     1.473              -49.12          4.988          65.37          62.44         -4.683         0.7928         -53.57          79.66          32.25          61.98          107.8
     1.507              -49.11          5.853          64.01          62.38         -4.523          1.333         -53.32          78.86          28.92          61.28          105.6
     1.541               -49.1          6.962          62.27          62.31         -4.318          2.025          -53.0          77.84          24.64          60.39          102.9
     1.576              -49.08          8.378          60.04          62.22         -4.055           2.91         -52.59          76.53          19.18          59.25          99.36
      1.61              -49.07          10.16          57.25          62.11         -3.725          4.023         -52.08          74.88          12.31          57.81          94.92
     1.644              -49.05          12.33          53.84          61.97         -3.323          5.379         -51.46          72.88          3.938          56.06          89.52
     1.679              -49.02          14.85          49.89          61.81         -2.857          6.951         -50.73          70.55         -5.764          54.02          83.25
     1.713              -48.99          17.57          45.61          61.64         -2.352          8.653         -49.95          68.03         -16.27          51.83          76.46
     1.747              -48.97          20.29          41.33          61.46         -1.847          10.35         -49.17          65.52         -26.78          49.63          69.68
     1.781              -48.94          22.81          37.38           61.3         -1.381          11.93         -48.44          63.19         -36.48           47.6          63.41
     1.816              -48.92          24.98          33.97          61.16        -0.9791          13.28         -47.82          61.19         -44.85          45.84           58.0
      1.85               -48.9          26.76          31.17          61.05        -0.6491          14.39          -47.3          59.54         -51.72          44.41          53.57
     1.884              -48.89          28.18          28.95          60.96        -0.3867          15.28          -46.9          58.23         -57.18          43.26          50.04
     1.918              -48.88          29.29          27.21          60.89        -0.1812          15.97         -46.58          57.21         -61.46          42.37          47.27
     1.953              -48.87          30.15          25.85          60.83       -0.02109          16.51         -46.33          56.41         -64.79          41.67          45.12
     1.987              -48.86          30.83          24.79          60.79          0.104          16.93         -46.14          55.78         -67.39          41.12          43.44
     2.021              -48.86          31.36          23.96          60.76         0.2024          17.27         -45.98          55.29         -69.44           40.7          42.12
